HIERARCHY
ROOT Hips
{
	OFFSET 0.000000 121.760803 0.000000
	CHANNELS 6 Xposition Yposition Zposition Xrotation Yrotation Zrotation 
	JOINT Spine
	{
		OFFSET 0.072000 7.257294 -0.789700
		CHANNELS 3 Xrotation Yrotation Zrotation
		JOINT Spine1
		{
			OFFSET 0.000000 12.508769 -0.658067
			CHANNELS 3 Xrotation Yrotation Zrotation
			JOINT Spine1_split
			{
				OFFSET 0.000000 12.508769 -0.658067
				CHANNELS 3 Xrotation Yrotation Zrotation
				JOINT Spine2
				{
					OFFSET 0.000000 12.508769 -0.658067
					CHANNELS 3 Xrotation Yrotation Zrotation
					JOINT Neck
					{
						OFFSET 0.000000 14.033295 7.520400
						CHANNELS 3 Xrotation Yrotation Zrotation
						JOINT Head
						{
							OFFSET 0.000000 8.198502 5.703100
							CHANNELS 3 Xrotation Yrotation Zrotation
							JOINT HeadTop_End
							{
								OFFSET 0.000000 17.760803 13.332701
								CHANNELS 3 Xrotation Yrotation Zrotation
								End Site
								{
									OFFSET 0.000000 0.000000 0.000000
								}
							}
						}
					}
					JOINT LeftShoulder
					{
						OFFSET 6.292450 5.785301 -0.669000
						CHANNELS 3 Xrotation Yrotation Zrotation
						JOINT LeftShoulder_split
						{
							OFFSET 6.292450 5.785301 -0.669000
							CHANNELS 3 Xrotation Yrotation Zrotation
							JOINT LeftArm
							{
								OFFSET 13.907140 -6.093903 1.965100
								CHANNELS 3 Xrotation Yrotation Zrotation
								JOINT LeftForeArm
								{
									OFFSET 34.140198 0.000000 0.000000
									CHANNELS 3 Xrotation Yrotation Zrotation
									JOINT LeftHand
									{
										OFFSET 40.960209 0.000000 0.000000
										CHANNELS 3 Xrotation Yrotation Zrotation
										JOINT LeftHandThumb1
										{
											OFFSET 10.006996 -7.170425 9.573125
											CHANNELS 3 Xrotation Yrotation Zrotation
											JOINT LeftHandThumb2
											{
												OFFSET 1.835007 -1.059448 1.059443
												CHANNELS 3 Xrotation Yrotation Zrotation
												JOINT LeftHandThumb3
												{
													OFFSET 2.112267 -1.219513 1.219518
													CHANNELS 3 Xrotation Yrotation Zrotation
													JOINT LeftHandThumb4
													{
														OFFSET 4.843811 -2.796570 2.796576
														CHANNELS 3 Xrotation Yrotation Zrotation
														End Site
														{
															OFFSET 0.000000 0.000000 0.000000
														}
													}
												}
											}
										}
										JOINT LeftHandIndex1
										{
											OFFSET 18.389847 -0.922348 4.596882
											CHANNELS 3 Xrotation Yrotation Zrotation
											JOINT LeftHandIndex2
											{
												OFFSET 4.711273 0.000000 0.000000
												CHANNELS 3 Xrotation Yrotation Zrotation
												JOINT LeftHandIndex3
												{
													OFFSET 2.886131 0.000000 0.000000
													CHANNELS 3 Xrotation Yrotation Zrotation
													JOINT LeftHandIndex4
													{
														OFFSET 6.145912 0.000000 0.000000
														CHANNELS 3 Xrotation Yrotation Zrotation
														End Site
														{
															OFFSET 0.000000 0.000000 0.000000
														}
													}
												}
											}
										}
										JOINT LeftHandMiddle1
										{
											OFFSET 18.013008 0.000000 0.000000
											CHANNELS 3 Xrotation Yrotation Zrotation
											JOINT LeftHandMiddle2
											{
												OFFSET 4.946693 0.000000 0.000000
												CHANNELS 3 Xrotation Yrotation Zrotation
												JOINT LeftHandMiddle3
												{
													OFFSET 3.342232 0.000000 0.000000
													CHANNELS 3 Xrotation Yrotation Zrotation
													JOINT LeftHandMiddle4
													{
														OFFSET 4.461754 0.000000 0.000000
														CHANNELS 3 Xrotation Yrotation Zrotation
														End Site
														{
															OFFSET 0.000000 0.000000 0.000000
														}
													}
												}
											}
										}
										JOINT LeftHandRing1
										{
											OFFSET 15.849892 -0.102921 -4.126150
											CHANNELS 3 Xrotation Yrotation Zrotation
											JOINT LeftHandRing2
											{
												OFFSET 3.527054 0.000000 0.000000
												CHANNELS 3 Xrotation Yrotation Zrotation
												JOINT LeftHandRing3
												{
													OFFSET 2.961098 0.000000 0.000000
													CHANNELS 3 Xrotation Yrotation Zrotation
													JOINT LeftHandRing4
													{
														OFFSET 4.927200 0.000000 0.000000
														CHANNELS 3 Xrotation Yrotation Zrotation
														End Site
														{
															OFFSET 0.000000 0.000000 0.000000
														}
													}
												}
											}
										}
										JOINT LeftHandPinky1
										{
											OFFSET 12.791824 -0.832031 -6.799156
											CHANNELS 3 Xrotation Yrotation Zrotation
											JOINT LeftHandPinky2
											{
												OFFSET 3.327133 0.000000 0.000000
												CHANNELS 3 Xrotation Yrotation Zrotation
												JOINT LeftHandPinky3
												{
													OFFSET 3.014900 0.000000 0.000000
													CHANNELS 3 Xrotation Yrotation Zrotation
													JOINT LeftHandPinky4
													{
														OFFSET 5.847786 0.000000 0.000000
														CHANNELS 3 Xrotation Yrotation Zrotation
														End Site
														{
															OFFSET 0.000000 0.000000 0.000000
														}
													}
												}
											}
										}
									}
								}
							}
						}
					}
					JOINT RightShoulder
					{
						OFFSET -6.292450 5.785301 -0.669000
						CHANNELS 3 Xrotation Yrotation Zrotation
						JOINT RightShoulder_split
						{
							OFFSET -6.292450 5.785301 -0.669000
							CHANNELS 3 Xrotation Yrotation Zrotation
							JOINT RightArm
							{
								OFFSET -13.907140 -6.093903 1.965100
								CHANNELS 3 Xrotation Yrotation Zrotation
								JOINT RightForeArm
								{
									OFFSET -34.140198 0.000000 0.000000
									CHANNELS 3 Xrotation Yrotation Zrotation
									JOINT RightHand
									{
										OFFSET -40.960209 0.000000 0.000000
										CHANNELS 3 Xrotation Yrotation Zrotation
										JOINT RightHandThumb1
										{
											OFFSET -10.007050 -7.170456 9.573117
											CHANNELS 3 Xrotation Yrotation Zrotation
											JOINT RightHandThumb2
											{
												OFFSET -1.835007 -1.059448 1.059443
												CHANNELS 3 Xrotation Yrotation Zrotation
												JOINT RightHandThumb3
												{
													OFFSET -2.112267 -1.219513 1.219518
													CHANNELS 3 Xrotation Yrotation Zrotation
													JOINT RightHandThumb4
													{
														OFFSET -4.843834 -2.796585 2.796590
														CHANNELS 3 Xrotation Yrotation Zrotation
														End Site
														{
															OFFSET 0.000000 0.000000 0.000000
														}
													}
												}
											}
										}
										JOINT RightHandIndex1
										{
											OFFSET -18.389870 -0.922424 4.596786
											CHANNELS 3 Xrotation Yrotation Zrotation
											JOINT RightHandIndex2
											{
												OFFSET -4.711273 0.000000 0.000000
												CHANNELS 3 Xrotation Yrotation Zrotation
												JOINT RightHandIndex3
												{
													OFFSET -2.886131 0.000000 0.000000
													CHANNELS 3 Xrotation Yrotation Zrotation
													JOINT RightHandIndex4
													{
														OFFSET -6.145920 0.000000 0.000000
														CHANNELS 3 Xrotation Yrotation Zrotation
														End Site
														{
															OFFSET 0.000000 0.000000 0.000000
														}
													}
												}
											}
										}
										JOINT RightHandMiddle1
										{
											OFFSET -18.013008 0.000000 0.000000
											CHANNELS 3 Xrotation Yrotation Zrotation
											JOINT RightHandMiddle2
											{
												OFFSET -4.946693 0.000000 0.000000
												CHANNELS 3 Xrotation Yrotation Zrotation
												JOINT RightHandMiddle3
												{
													OFFSET -3.342232 0.000000 0.000000
													CHANNELS 3 Xrotation Yrotation Zrotation
													JOINT RightHandMiddle4
													{
														OFFSET -4.461754 0.000000 0.000000
														CHANNELS 3 Xrotation Yrotation Zrotation
														End Site
														{
															OFFSET 0.000000 0.000000 0.000000
														}
													}
												}
											}
										}
										JOINT RightHandRing1
										{
											OFFSET -15.849876 -0.102936 -4.126237
											CHANNELS 3 Xrotation Yrotation Zrotation
											JOINT RightHandRing2
											{
												OFFSET -3.527054 0.000000 0.000000
												CHANNELS 3 Xrotation Yrotation Zrotation
												JOINT RightHandRing3
												{
													OFFSET -2.961098 0.000000 0.000000
													CHANNELS 3 Xrotation Yrotation Zrotation
													JOINT RightHandRing4
													{
														OFFSET -4.927200 0.000000 0.000000
														CHANNELS 3 Xrotation Yrotation Zrotation
														End Site
														{
															OFFSET 0.000000 0.000000 0.000000
														}
													}
												}
											}
										}
										JOINT RightHandPinky1
										{
											OFFSET -12.791786 -0.832077 -6.799222
											CHANNELS 3 Xrotation Yrotation Zrotation
											JOINT RightHandPinky2
											{
												OFFSET -3.327133 0.000000 0.000000
												CHANNELS 3 Xrotation Yrotation Zrotation
												JOINT RightHandPinky3
												{
													OFFSET -3.014900 0.000000 0.000000
													CHANNELS 3 Xrotation Yrotation Zrotation
													JOINT RightHandPinky4
													{
														OFFSET -5.847786 0.000000 0.000000
														CHANNELS 3 Xrotation Yrotation Zrotation
														End Site
														{
															OFFSET 0.000000 0.000000 0.000000
														}
													}
												}
											}
										}
									}
								}
							}
						}
					}
				}
			}
		}
	}
	JOINT LeftUpLeg
	{
		OFFSET 13.026900 -6.336304 -1.092800
		CHANNELS 3 Xrotation Yrotation Zrotation
		JOINT LeftLeg
		{
			OFFSET 0.524474 -46.096886 9.782700
			CHANNELS 3 Xrotation Yrotation Zrotation
			JOINT LeftFoot
			{
				OFFSET -0.524474 -53.427422 -12.948200
				CHANNELS 3 Xrotation Yrotation Zrotation
				JOINT LeftToeBase
				{
					OFFSET 0.192200 -14.009700 16.364100
					CHANNELS 3 Xrotation Yrotation Zrotation
					JOINT LeftToe_End
					{
						OFFSET -1.784700 -0.561700 9.474800
						CHANNELS 3 Xrotation Yrotation Zrotation
						End Site
						{
							OFFSET 0.000000 0.000000 0.000000
						}
					}
				}
			}
		}
	}
	JOINT RightUpLeg
	{
		OFFSET -12.883000 -6.336304 -1.092800
		CHANNELS 3 Xrotation Yrotation Zrotation
		JOINT RightLeg
		{
			OFFSET -0.524587 -46.096825 9.782800
			CHANNELS 3 Xrotation Yrotation Zrotation
			JOINT RightFoot
			{
				OFFSET 0.524587 -53.427383 -12.948300
				CHANNELS 3 Xrotation Yrotation Zrotation
				JOINT RightToeBase
				{
					OFFSET -0.192200 -14.009700 16.364100
					CHANNELS 3 Xrotation Yrotation Zrotation
					JOINT RightToe_End
					{
						OFFSET 1.784700 -0.561700 9.474800
						CHANNELS 3 Xrotation Yrotation Zrotation
						End Site
						{
							OFFSET 0.000000 0.000000 0.000000
						}
					}
				}
			}
		}
	}
}
MOTION
Frames: 5
Frame Time: 0.016667
9.760715 82.194466 62.865929 -14.770593 -42.913536 -8.394886 23.052191 6.469032 -10.490414 0.646536 0.929547 0.134782 0.000000 0.000000 0.000000 0.636326 0.960700 0.115374 4.340624 13.104364 0.961784 1.464764 20.711690 -6.151120 -0.000001 -0.000000 0.000000 0.727744 3.026999 -7.324554 0.000000 0.000000 0.000000 -54.688601 2.382177 -44.353445 0.000049 -113.998562 0.000028 -8.744111 -11.473586 -10.700563 -6.141218 -11.690801 -6.761684 9.914140 42.595519 3.409866 -0.422817 8.108093 27.509101 -0.000001 0.000001 -0.000001 0.255308 3.378218 -45.814331 5.654097 5.847748 -88.067441 2.162141 4.544810 -50.866355 -0.000001 -0.000002 -0.000002 -0.461480 3.841595 -39.722676 6.450746 5.820362 -95.892871 2.182898 4.561570 -51.127729 0.000000 0.000000 -0.000003 0.469714 4.966828 -39.799430 8.181035 5.368616 -113.502984 3.200493 5.218125 -63.022975 -0.000000 0.000001 0.000000 -3.762437 9.063702 -45.253818 5.342535 5.828998 -85.005304 8.716837 5.103323 -119.369194 0.000001 -0.000000 -0.000000 2.812982 13.874460 -5.932526 0.000000 0.000000 0.000000 -45.155825 21.957416 84.432948 0.000026 114.502568 -0.000035 1.729106 20.759629 7.523805 -7.341087 13.749662 7.412319 9.855756 -44.489107 -3.903268 -0.115768 -14.513083 -28.973864 -0.000002 -0.000001 0.000003 -0.124380 -2.384793 45.108864 4.500597 -4.654531 88.071171 1.723211 -3.618375 50.920112 -0.000001 -0.000002 -0.000000 -0.761622 -2.932907 39.031044 5.133885 -4.632756 95.881649 1.739744 -3.631697 51.181360 0.000001 0.000001 -0.000004 0.154756 -4.068826 39.122675 6.509727 -4.273602 113.462850 2.549585 -4.153926 63.067317 0.000001 -0.000002 -0.000000 -4.198874 -8.025513 44.637769 4.252913 -4.639622 85.014811 6.935975 -4.062634 119.322285 -0.000000 -0.000001 -0.000001 -47.813093 -2.150065 29.611974 56.222101 -6.348284 6.790176 0.663219 -10.063628 -26.063116 -0.000088 0.000005 -0.000004 0.000000 -0.000003 -0.000000 -29.027006 -0.959630 -39.429381 76.381159 10.994320 -9.854973 -3.732974 -8.153527 18.095603 -19.935285 -1.004951 7.448379 -0.000000 -0.000001 0.000000 
8.918612 83.106773 60.769958 -13.960149 -42.851179 -7.191654 21.301844 7.124634 -9.566791 1.010364 1.004094 -0.234459 0.000000 0.000000 0.000000 1.004583 1.022897 -0.248461 4.766927 13.065345 0.442463 1.896270 20.295893 -6.198564 0.000001 -0.000000 0.000000 0.722454 3.377168 -7.482013 0.000000 0.000000 0.000000 -53.816085 2.392659 -44.340618 -0.000076 -114.488539 -0.000069 -8.831642 -10.561579 -10.712639 -6.141215 -11.690803 -6.761686 9.914142 42.595522 3.409857 -0.422813 8.108092 27.509101 -0.000001 -0.000000 -0.000001 0.255310 3.378219 -45.814337 5.654098 5.847748 -88.067435 2.162140 4.544813 -50.866359 -0.000000 -0.000002 0.000001 -0.461478 3.841598 -39.722676 6.450751 5.820361 -95.892878 2.182898 4.561573 -51.127729 -0.000000 -0.000001 0.000000 0.469718 4.966826 -39.799430 8.181035 5.368615 -113.502984 3.200495 5.218126 -63.022975 0.000000 -0.000001 0.000003 -3.762437 9.063705 -45.253818 5.342539 5.828998 -85.005297 8.716837 5.103328 -119.369194 -0.000001 0.000000 0.000000 2.844844 14.234612 -6.010195 0.000000 0.000000 0.000000 -45.524020 21.500532 84.730232 0.000038 114.409739 -0.000021 1.034113 19.977805 8.075902 -7.341086 13.749662 7.412322 9.855754 -44.489110 -3.903261 -0.115769 -14.513086 -28.973864 -0.000002 0.000002 -0.000000 -0.124376 -2.384789 45.108868 4.500601 -4.654532 88.071178 1.723216 -3.618376 50.920116 0.000000 -0.000000 0.000001 -0.761618 -2.932905 39.031048 5.133885 -4.632759 95.881649 1.739751 -3.631697 51.181360 0.000001 0.000001 -0.000002 0.154759 -4.068821 39.122675 6.509729 -4.273602 113.462850 2.549587 -4.153927 63.067324 -0.000000 -0.000002 -0.000001 -4.198870 -8.025510 44.637776 4.252918 -4.639625 85.014811 6.935971 -4.062631 119.322285 -0.000001 0.000000 0.000001 -46.715485 -1.267512 29.650077 52.233240 -6.699176 6.789894 2.628943 -10.314017 -26.976737 -0.000014 -0.000002 0.000003 0.000000 -0.000002 -0.000000 -27.914283 -2.241562 -38.403985 75.135312 10.851695 -9.954391 -8.955105 -11.116838 19.475477 -17.294889 -0.352896 4.490059 0.000000 0.000001 -0.000000 
8.118830 83.975410 58.650105 -12.864600 -42.516865 -5.867922 19.484023 7.644065 -8.569132 1.352514 1.057872 -0.608382 0.000000 0.000000 0.000000 1.352140 1.065427 -0.615880 5.139179 13.011476 -0.052973 2.198363 19.765673 -6.130645 -0.000000 0.000000 -0.000000 0.720599 3.654625 -7.622853 0.000000 0.000000 0.000000 -53.440821 2.217203 -44.400287 -0.000032 -114.716879 -0.000044 -8.688860 -9.634171 -11.046166 -6.141215 -11.690805 -6.761691 9.914140 42.595519 3.409853 -0.422814 8.108083 27.509101 0.000001 0.000001 -0.000002 0.255310 3.378216 -45.814327 5.654095 5.847748 -88.067441 2.162141 4.544813 -50.866359 -0.000001 0.000000 -0.000002 -0.461478 3.841594 -39.722676 6.450750 5.820361 -95.892871 2.182899 4.561571 -51.127729 0.000000 0.000000 -0.000000 0.469716 4.966826 -39.799430 8.181033 5.368614 -113.502984 3.200494 5.218126 -63.022975 -0.000000 -0.000001 -0.000001 -3.762438 9.063705 -45.253818 5.342539 5.828996 -85.005297 8.716835 5.103327 -119.369194 0.000001 -0.000000 0.000000 2.810635 14.537255 -6.138983 0.000000 0.000000 0.000000 -46.080175 20.947442 84.878822 0.000073 114.352277 -0.000060 0.145104 19.111361 8.651132 -7.341086 13.749666 7.412325 9.855748 -44.489107 -3.903261 -0.115765 -14.513085 -28.973874 0.000001 -0.000000 0.000000 -0.124377 -2.384792 45.108874 4.500596 -4.654533 88.071178 1.723218 -3.618373 50.920109 0.000000 -0.000000 -0.000001 -0.761618 -2.932904 39.031048 5.133887 -4.632759 95.881649 1.739745 -3.631697 51.181363 -0.000000 0.000003 -0.000000 0.154760 -4.068823 39.122678 6.509727 -4.273604 113.462850 2.549587 -4.153929 63.067317 0.000001 -0.000002 0.000001 -4.198871 -8.025515 44.637776 4.252915 -4.639626 85.014811 6.935973 -4.062632 119.322285 -0.000003 -0.000000 -0.000001 -45.962539 -0.516354 29.459453 48.359901 -6.949385 6.741041 4.532947 -10.838321 -27.684550 -0.000006 -0.000003 0.000004 -0.000000 0.000002 0.000000 -26.535476 -3.579500 -37.955856 73.163894 9.912527 -8.940304 -14.876451 -13.154208 20.134477 -13.781734 -0.041559 1.570729 -0.000000 0.000000 0.000000 
7.388525 84.820488 56.460800 -11.592278 -41.976936 -4.470065 17.773573 7.980492 -7.632022 1.638936 1.089202 -0.969848 0.000000 0.000000 0.000000 1.644422 1.086867 -0.970826 5.394269 12.949653 -0.475063 2.388283 19.167883 -5.962650 -0.000000 -0.000000 -0.000000 0.718280 3.843462 -7.721461 0.000000 0.000000 0.000000 -53.487382 1.962369 -44.508795 0.000025 -114.724515 0.000022 -8.343837 -8.919360 -11.544607 -6.141215 -11.690803 -6.761682 9.914139 42.595525 3.409847 -0.422815 8.108095 27.509096 -0.000001 -0.000005 0.000003 0.255311 3.378217 -45.814331 5.654096 5.847749 -88.067441 2.162142 4.544816 -50.866352 -0.000002 0.000000 0.000000 -0.461479 3.841598 -39.722676 6.450749 5.820361 -95.892871 2.182899 4.561570 -51.127729 -0.000000 -0.000001 -0.000000 0.469716 4.966828 -39.799434 8.181033 5.368614 -113.502984 3.200494 5.218127 -63.022975 0.000001 0.000003 -0.000001 -3.762437 9.063705 -45.253821 5.342538 5.828997 -85.005304 8.716837 5.103330 -119.369194 -0.000001 -0.000000 0.000001 2.691449 14.753632 -6.327800 0.000000 0.000000 0.000000 -46.723067 20.456833 84.821599 -0.000043 114.332265 0.000030 -0.808701 18.412570 9.158094 -7.341086 13.749662 7.412328 9.855745 -44.489100 -3.903261 -0.115769 -14.513081 -28.973871 0.000000 0.000001 -0.000000 -0.124379 -2.384793 45.108868 4.500598 -4.654531 88.071171 1.723217 -3.618376 50.920109 0.000001 -0.000001 0.000003 -0.761618 -2.932906 39.031048 5.133889 -4.632758 95.881649 1.739748 -3.631699 51.181360 -0.000002 -0.000001 0.000000 0.154758 -4.068824 39.122678 6.509727 -4.273602 113.462850 2.549587 -4.153926 63.067317 -0.000000 0.000001 -0.000000 -4.198872 -8.025514 44.637776 4.252915 -4.639626 85.014818 6.935974 -4.062632 119.322285 -0.000003 -0.000000 0.000000 -45.537325 -0.047072 29.069832 45.123481 -6.963330 6.494164 5.456562 -11.227635 -28.209492 2.330108 -0.000016 -0.000003 0.000000 -0.000000 -0.000000 -25.678190 -4.742531 -37.589618 71.289293 8.744442 -7.558578 -19.986926 -14.211409 19.877939 -10.879057 0.000001 0.000003 -0.000000 0.000001 -0.000000 
6.777119 85.607155 54.285637 -10.262325 -41.299094 -3.080021 16.286221 8.113525 -6.818613 1.874576 1.097743 -1.317245 0.000000 0.000000 0.000000 1.886066 1.087211 -1.312155 5.491041 12.883363 -0.792214 2.478761 18.552093 -5.750200 -0.000000 -0.000000 -0.000000 0.717232 3.924105 -7.764516 0.000000 0.000000 0.000000 -54.024457 1.701612 -44.671172 0.000029 -114.519521 0.000027 -7.856702 -8.458363 -12.064935 -6.141216 -11.690806 -6.761690 9.914136 42.595525 3.409852 -0.422817 8.108093 27.509097 0.000001 0.000004 -0.000002 0.255310 3.378215 -45.814337 5.654095 5.847749 -88.067435 2.162141 4.544813 -50.866359 -0.000002 -0.000002 -0.000005 -0.461477 3.841596 -39.722679 6.450749 5.820361 -95.892878 2.182898 4.561570 -51.127729 0.000000 0.000001 0.000001 0.469716 4.966826 -39.799434 8.181032 5.368617 -113.502984 3.200493 5.218126 -63.022975 0.000000 0.000001 0.000001 -3.762436 9.063702 -45.253818 5.342539 5.828998 -85.005304 8.716837 5.103327 -119.369194 0.000000 -0.000000 0.000001 2.470813 14.861052 -6.589037 0.000000 0.000000 0.000000 -47.485794 20.109959 84.599789 0.000069 114.337360 -0.000078 -1.709113 17.916930 9.575162 -7.341085 13.749661 7.412327 9.855750 -44.489103 -3.903255 -0.115768 -14.513080 -28.973867 0.000001 0.000000 -0.000000 -0.124378 -2.384792 45.108868 4.500597 -4.654533 88.071171 1.723217 -3.618375 50.920105 -0.000001 0.000002 0.000003 -0.761620 -2.932907 39.031055 5.133889 -4.632758 95.881649 1.739750 -3.631699 51.181363 0.000001 0.000000 -0.000001 0.154758 -4.068824 39.122675 6.509727 -4.273603 113.462850 2.549587 -4.153925 63.067317 -0.000000 0.000001 -0.000002 -4.198873 -8.025518 44.637776 4.252915 -4.639626 85.014811 6.935973 -4.062633 119.322285 -0.000001 0.000001 0.000002 -45.618328 0.119019 28.419724 43.304113 -7.128621 5.995506 4.842792 -10.809347 -28.375715 1.921896 -0.000003 0.000003 -0.000000 -0.000001 -0.000000 -25.434527 -5.596482 -37.375137 69.602708 7.355277 -5.816415 -24.680042 -14.677014 18.107122 -6.023803 -0.000021 0.000000 -0.000000 -0.000001 -0.000001 
